<svg id="Layer_1" data-name="Layer 1" xmlns="http://www.w3.org/2000/svg" width="300px" height="328px" viewBox="0 0 258.98 283.24"><title>hairdresser2</title><g id="layer1"><path d="M154.16,124.2a.55.55,0,0,1,.29.09c.11.08.07.27-.25,1s-.35.84-.63.84a4.27,4.27,0,0,1-1.17-.43l-.84-.37.71-.23a4.79,4.79,0,0,0,1.18-.56A1.33,1.33,0,0,1,154.16,124.2Zm4-.35q.08,0,0,.12c0,.08-.16.78-.3,1.53a8.8,8.8,0,0,1-.37,1.47s-.08,0-.19,0a8.83,8.83,0,0,1-2.09-.31c-.11-.07,0-.36.4-1.08.5-.94.56-1,1.06-1.13a3.93,3.93,0,0,0,1-.38A1.69,1.69,0,0,1,158.2,123.85Zm69.9,6.24h0ZM54.61,234c.11,0,.18.1.3.34s.17.37-.28.86c-.25.26-.42.39-.54.39s-.2-.2-.2-.6.06-.57.31-.76S54.51,234,54.61,234Zm48.17,18.27.16,0c.19,0,1.35.11,2.56.15l2.2.09v1.52h-2.83c-1.41,0-2.75,0-3,.07l-.3,0c-.31,0-.18-.18.47-1.11C102.45,252.42,102.58,252.27,102.78,252.27ZM247.36,19c-.72,0-1.26,0-1.38,0a15.28,15.28,0,0,0-8.66,3.9,11.16,11.16,0,0,0-2.43,3.31c-1,2-1.39,4.71-.9,6,.26.67.31.56-1.55,3.52-1.54,2.45-2,3.34-2.07,4-.06.47,0,.57.25.84a3.45,3.45,0,0,0,1.76.67,2.55,2.55,0,0,1,.66.12c.31.12.32.16.25.84a4,4,0,0,1-.26,1.09,1,1,0,0,0,.29,1.42l.49.38-.31.54c-.3.5-.31.55-.14.83a.93.93,0,0,0,.31.29c.06,0,.26.21.43.47.35.52.35.6,0,2.51-.16,1-.16,1,.14,1.54a3.14,3.14,0,0,0,2.85,1.5,3.82,3.82,0,0,0,.57,0l2.69-.3c.89-.1,1.36-.15,1.64-.15a.6.6,0,0,1,.48.15,7.36,7.36,0,0,1,1,1.67,3,3,0,0,1-.65.33c-.61.25-.82.48-.56.63a6.84,6.84,0,0,1,.64.89c.46.71.52.87.49,1.34a44.1,44.1,0,0,1-1.91,8.33l-.54,1.67-1,1c-.59.54-1.67,1.58-2.42,2.3l-1.37,1.3,0,2.83c0,1.55,0,3.81-.12,5a14.08,14.08,0,0,1-.72,4.25c-.88,3.06-1.27,4.58-1.75,6.82-.82,3.79-1.36,5-2.76,6l-.8.56-3.06-1.51c-3-1.47-4.42-2.06-5-2.06h-.14c-.27,0-.52.37-1.36,1.72a6.67,6.67,0,0,1-1.17,1.61h0c-1.44-.44-2.66-.87-5-1.74A47.45,47.45,0,0,0,206.5,93c-1-.19-2.29-.48-2.9-.65a8.31,8.31,0,0,0-2.21-.39,10.56,10.56,0,0,0-3,.64,5.72,5.72,0,0,1-1.42.32,1.07,1.07,0,0,1-.32,0,8,8,0,0,0-1.23-.21l-.84-.08-.26-.67a18.94,18.94,0,0,1-.57-2.22c-.37-1.83-.64-2.5-1.23-3.07a3.46,3.46,0,0,0-2.89-1h0a7.63,7.63,0,0,0-4,1,17.58,17.58,0,0,0-4.67,3.52,18.89,18.89,0,0,0-4,5.68c-1.7,3.43-3.44,6.12-4.53,7a4,4,0,0,1-2.64.91h-.61c-.48,0-.61,0-.63.18-.13.66,3.34,5.85,5.12,7.65q.83.84,1.23.84a.32.32,0,0,0,.27-.15c.05-.09.2-.77.36-1.52a6.84,6.84,0,0,1,1.95-4,27.45,27.45,0,0,1,7.41-4.9l2.85-1.24a8.35,8.35,0,0,1,1.25-.51h0a6.46,6.46,0,0,1,.51.93c1.3,2.64,5.42,5.14,9.26,5.62a11,11,0,0,0,1.29.08,21.07,21.07,0,0,0,4.52-.67,18.56,18.56,0,0,1,4.28-.67c.34,0,.68,0,1,0a17.24,17.24,0,0,1,6,2c.86.43,1,.55,1.21,1a3.49,3.49,0,0,0,.72.93l.49.45-.33.13c-.19.07-1.22.35-2.31.64l-3.23.87c-.69.2-2.57.71-4.19,1.14-4.21,1.12-6.42,1.88-7.78,2.69-1.15.69-2.44,1-5.63,1.25a19.25,19.25,0,0,0-7.24,2.06,6.21,6.21,0,0,1-1.64.56q-.43,0,.72-1a10.77,10.77,0,0,0,2.47-2.94,7,7,0,0,0,1.15-3.17c0-2.1-1.84-4.81-4.13-6a4.66,4.66,0,0,0-1.3-.51h0a8.52,8.52,0,0,0-2.72,1.28,3.07,3.07,0,0,0-1.11,1.39c-.06.21,0,.31.06.31s.54-.26,1.16-.8a14.24,14.24,0,0,1,1.27-1,1.08,1.08,0,0,1,.6-.17,3.39,3.39,0,0,1,1.61.6c3.32,2,4.18,4.6,2.58,7.77a6,6,0,0,1-4,3.47,34.67,34.67,0,0,1-4.75.54L178,119l-2-2.14c-3.33-3.48-4.16-4.54-4.42-5.55-.11-.43-.15-.52-.35-.52h-.25a1.56,1.56,0,0,1-.72-.21,1.16,1.16,0,0,0-.6-.23c-.31,0-.6.26-1.24.93-.79.82-1,1-1.32,1s-.51-.13-1-.64a31.66,31.66,0,0,1-3.89-6.07c0-.1.25-.3.57-.44l.56-.27,1.56,1.55a21.32,21.32,0,0,0,1.65,1.56c.13,0,.09-.42-.11-1.34a1.93,1.93,0,0,0-.73-1.34,24.91,24.91,0,0,1-2.35-2.93c-.06-.09,0-.26.16-.43.62-.66.55-1.54-.17-2.45-.36-.46-.4-.59-.34-1a1.88,1.88,0,0,0-1-1.88c-.52-.29-.61-.4-.67-.79a2.73,2.73,0,0,0-.23-.7,2.5,2.5,0,0,0-1.46-.78,1.38,1.38,0,0,1-.87-.54c-.33-.39-.48-.46-.85-.46a1.71,1.71,0,0,0-.91.29,1.53,1.53,0,0,1-.48.28h0s-.23-.49-.45-1a14.47,14.47,0,0,0-2.14-3.55,14.93,14.93,0,0,0-3.73-3.3,8.63,8.63,0,0,0-2.91-1.54L145.55,84c-.69-.2-1.89-.47-2.66-.6a9.75,9.75,0,0,1-1.73-.41,20.41,20.41,0,0,0-3.61-1.12,16.26,16.26,0,0,0-5.1.11,22.13,22.13,0,0,0-5,2.57A4.91,4.91,0,0,0,126,86.86a6.2,6.2,0,0,0,.28,3.59l.36,1.08-.28.3A36,36,0,0,0,124,95.47a10,10,0,0,0-.94,3.41c-.21,2.46-.22,2.51-.43,2.51h0a1.94,1.94,0,0,1-.76-.5l-.54-.5.07.36a8.13,8.13,0,0,0,.55,1.17l.48.84-1.18,1.12a14,14,0,0,1-1.81,1.54c-.86.56-.83.71.36,2.06.68.78.72,1.09.21,1.78a2.19,2.19,0,0,0-.36.64,1.92,1.92,0,0,0,.36.58c.41.52.43.63.18.84s-.21.75.29,1.44A2.29,2.29,0,0,1,121,115a3.25,3.25,0,0,0,.06,2,2.65,2.65,0,0,0,1.78,1.58,17.45,17.45,0,0,0,2.45.25c2.27.08,3.41.24,3.86.52a3.06,3.06,0,0,1,.77,1c1,1.86,1.91,3.47,2.42,4.28a6.09,6.09,0,0,1,1,3.89,8.45,8.45,0,0,1-.06,1.44l-.08,0a3.79,3.79,0,0,1-.6-.09,2.64,2.64,0,0,0-.49-.08c-.2,0-.3.1-.58.37a3.07,3.07,0,0,0-.93,1.69,5.81,5.81,0,0,1-.76,1.44c-.92,1.34-1.18,2.11-.69,2.12h0c.26,0,1.19-.92,1.64-1.59l.38-.6,0,.53c0,.44,0,.56-.27.76a2.41,2.41,0,0,0-.53.79,9.73,9.73,0,0,1-3,3.17c-4,2.9-6.14,5.59-6.35,8-.08,1,.24,2,1.28,4.16a9.35,9.35,0,0,0,1.81,2.9c.75.7.55,2.23-.59,4.48L123,159.1l-.34-.34-2-2.16a17.66,17.66,0,0,1-3.2-4.49c-1.68-2.93-1.81-3.19-2-3.19h-.09c-.14,0-.32-.31-.61-1a3.22,3.22,0,0,0-.56-1,5.41,5.41,0,0,1-.83-1,8.06,8.06,0,0,0-3.28-2.63,19.83,19.83,0,0,1-6.32-5.37,8.47,8.47,0,0,0-1.58-1.58c-.3,0-.49.5-.49,1.27,0,.92.19,1.24,1.82,3.22a4.71,4.71,0,0,1,1.38,2.82l0,.53-.78.26a5.21,5.21,0,0,1-1.74.27,6,6,0,0,1-3.76-1.23,46.36,46.36,0,0,1-5.17-5.17c-2.09-2.34-2.52-2.7-3.26-2.71h0c-.83,0-.69.3,1.15,2.64a9.57,9.57,0,0,1,1,1.36h0a11.08,11.08,0,0,1-1.28-1.15c-2-2-3.23-2.74-4.3-2.74h0c-.42,0-.49,0-.4.17s.92,1.08,1.92,2.16,1.92,2.09,2,2.23.15.22.09.22l-.16,0c-.14,0-.73-.35-1.33-.68a7.58,7.58,0,0,0-3.17-1.22,1,1,0,0,0-.7.24c-.23.24-.23.24.35.56,3.41,1.93,7.69,4.84,7.69,5.21a15.89,15.89,0,0,1-2.2.08h-1c-1.34,0-1.48.05-2,.29-1,.51-.89.67.68.75,3,.19,4,.48,8.94,2.71a10.7,10.7,0,0,0,4,1.11c6.18,1,7.3,1.21,8.07,1.47.47.15.84.34.84.42a3.14,3.14,0,0,1-.81.75c-.7.54-.79.66-.66.83s.35.45.62.77l.46.58-.2.36-.22.35,1,.91c.53.5,1.36,1.29,1.8,1.75s.75.72.89.72a.15.15,0,0,0,.09,0,.12.12,0,0,1,.09,0c.07,0,.11.13.15.49.11.77.28,1.21.52,1.28l.76.19a2,2,0,0,1,.68.29,12.79,12.79,0,0,1,1.32,2.81,1.51,1.51,0,0,0,.3.74,3.22,3.22,0,0,1,.76,1.88c.12,1,.36,1.49.77,1.67s.74.89.73,2.67-.11,2.18-1.09,3.44l-.59.76-.72-.08c-.39,0-1.24-.14-1.89-.24-1.13-.17-9-1.07-10.43-1.2a110.75,110.75,0,0,0-12.16-.52H90.6a151.68,151.68,0,0,0-15.91.7l-2.57.23c-1.34.13-5.15.53-6.1.66s-1.35.32-14.07,6.69c-7.22,3.61-13.17,6.61-13.23,6.67a14.77,14.77,0,0,0,.64,2.4,8.39,8.39,0,0,1,.68,2.85c-.06.53-.11.59-.85,1.11-1,.73-.85,4.82.44,9.36a43.62,43.62,0,0,0,3.67,9,29.07,29.07,0,0,1,2,3.69,12.34,12.34,0,0,0,.64,1.4c.18.32.92,1.74,1.65,3.13l1.32,2.52-.6,2.14c-.33,1.18-1,3.63-1.45,5.43a88.75,88.75,0,0,1-5.09,14.77c-.85,2-1.83,4.34-2.2,5.26a13.55,13.55,0,0,1-3.79,5.92c-1.63,1.69-2.2,2.52-2.07,3.05s.55.67,2.06.8,2,.25,2,.46a13.87,13.87,0,0,1-2.28,3.65c-.37.45-1,1.29-1.34,1.85-1.36,2.09-8.73,11.1-12.21,14.91-2.23,2.45-2.63,3-2.63,3.73s.83,1.2,2,1.2h0c.71,0,1.32-.36,1.32-.79s.2-.76.46-.76.37.23.37.84.11.82.92.82c.36,0,.86,0,1.55-.11a4.57,4.57,0,0,0,3.29-1.39c.94-.87,1.45-1.23,1.75-1.23h0a7.22,7.22,0,0,0,2.8-1.64c.61-.52,2.29-2.14,3.73-3.62a44.17,44.17,0,0,1,5.69-5.27,4.34,4.34,0,0,0,1.61-1.54,7.27,7.27,0,0,0,.16-4.36,5.5,5.5,0,0,1-.3-2.83,9.32,9.32,0,0,1,1.43-3c1.79-2.46,5.53-6.08,12.19-11.76l3.38-2.89a10.7,10.7,0,0,1,1.33-1.05,2.68,2.68,0,0,1,.62.68,47.17,47.17,0,0,0,5.32,5.24,7.39,7.39,0,0,0,3.76,1.76,1.27,1.27,0,0,0,.63-.14.52.52,0,0,1,.23-.05,2.73,2.73,0,0,1,1.54.78l.53.47H72.76c-5.84,0-13.29.18-16.21.4-1.93.14-2.92.45-3.16,1-.16.35-.12.36.76.45,1.35.14,15.66.47,20.92.48h2.62L79,257.78c4.17,4,8.5,6.73,11.47,7.25a4.2,4.2,0,0,0,.69.06c1.39,0,2.43-1,5.39-4.78.77-1,1.72-2.21,2.09-2.71l.69-.93h4.18l4.18,0c0,.16.31,24.72.31,25.6v1.15l-.86.39A91.26,91.26,0,0,1,97,287.78a262.35,262.35,0,0,1-27.33,7.5c-5.88,1.25-7.63,1.75-8.19,2.32s-.33.71,2.31.91c2,.15,43.66.27,73.62.27,15.25,0,27.47,0,29.92-.1,2.73-.08,5.16-.17,5.39-.2l1.15-.11c.94-.11,1.09-.19.91-.59-.31-.69-1.95-1.21-7.68-2.43-5.22-1.11-12.21-2.79-15.25-3.67-5.15-1.5-13.59-4.24-17-5.51-.72-.28-2.29-.91-3.46-1.42l-2.14-.92.08-2.28c.05-1.25.1-5.62.12-9.7s.08-9.18.12-11.32l.06-3.89,1.56,0c3.56-.05,9-.26,9.57-.38.77-.15,1-.38,1-1,0-.4-.06-.49-.37-.65-.46-.24-2.24-.37-5.49-.42-1.35,0-2.59-.05-2.75-.07s-1.05,0-1.94-.05l-1.64,0,0-1.47c0-.8,0-1.47,0-1.48s2.33-.33,5.15-.68c7.38-.93,8.41-1.06,14-1.85,2.76-.41,5.24-.75,5.52-.78l.49-.06.07-2.24c0-1.22.14-4.33.23-6.92l.16-4.69.81-.82a6.43,6.43,0,0,0,1.4-2.07,35.13,35.13,0,0,0,2.63-9.43,29.17,29.17,0,0,0,.23-4.25l0-3,3.58-9.87c2-5.43,3.65-10.1,3.75-10.4.26-.83,4.25-16.61,5.14-20.33,3.53-14.8,5.2-24.08,5.75-31.94a53.5,53.5,0,0,0-.17-7.9,23.61,23.61,0,0,0-.6-2.92c-1.24-4.33-3.27-6.91-6.22-7.94a5.54,5.54,0,0,0-2.31-.33H169a5.76,5.76,0,0,0-3.31.86,13.55,13.55,0,0,0-3.41,3c-.31.4-1.16,1.66-1.88,2.81a18.18,18.18,0,0,1-1.46,2.14h0a11.84,11.84,0,0,1,.81-3,3.27,3.27,0,0,0,.28-1.1.77.77,0,0,0-.35-.07c-.33,0-.33,0,0-.58,2.12-3.33,2.53-5.16,2.1-9.35l-.14-1.37.38-.65a3.87,3.87,0,0,0,.47-1.16,7.78,7.78,0,0,0-.16-2.31s0-.06,0-.06a29.26,29.26,0,0,1,4.24,4.48c.78,1.3,2.77,2.8,3.7,2.8h.06a1.7,1.7,0,0,1,.77.21,17.16,17.16,0,0,1,3.48,4.11,4.33,4.33,0,0,0,.7.88h0c.09,0,.24-.19.38-.43s.33-.49.44-.49a5.28,5.28,0,0,1,1.47,1.34h-.05l-.06.28a4.55,4.55,0,0,0,2.15,5.3A13.77,13.77,0,0,0,183,132h0a3.76,3.76,0,0,0,2.73.93h0a6,6,0,0,0,1.42-.17h.38a9.44,9.44,0,0,0,1.2-.07,6.11,6.11,0,0,0,4.55-2.66,15.61,15.61,0,0,0,2.33-5.62h0A6.12,6.12,0,0,1,197,124a4,4,0,0,1,.76-.07,3.38,3.38,0,0,1,1.81.49,2.86,2.86,0,0,0,1.41.51,1,1,0,0,0,.4-.08,2.06,2.06,0,0,1,.76-.15c1,0,2,.84,2.67,2.29a7.76,7.76,0,0,0,3.15,4,4.15,4.15,0,0,0,1.74.49,14.27,14.27,0,0,1,3.82,1.14,11.74,11.74,0,0,0,4.56.75l1,0a11.82,11.82,0,0,0,7.92-2.42c.53-.4,1-.73,1.13-.82h.05c0,.28-.21,3-.57,7.82-.13,1.94-.36,5-.49,6.76-.43,5.77-.72,9.86-1,13.28-.57,7.62-.75,10.38-.72,10.42s2.66.36,5.17.61c1.19.11,2.18.23,2.22.25s.18,2.35.36,5.16c.41,6.55,1,15.29,1.27,17.85.06.7.2,2.31.3,3.59s.21,2.6.23,2.94.17,1.86.29,3.41c.31,3.5.58,6.6.65,7.24,0,.26.11,1.17.18,2s.17,2,.23,2.57.14,1.39.18,1.86.14,1.59.23,2.51.19,2,.23,2.39c.11,1.38.42,4.56.54,5.63.06.59.2,1.94.29,3s.24,2.44.3,3.08c.29,2.89.36,3.66.58,6,.13,1.37.26,2.72.3,3,.07.54.28,2.68.71,7,.16,1.62.34,3.39.41,3.95s.14,1.31.16,1.67c.07.72.4,4,.78,7.6.26,2.49.27,2.54.53,5.15.33,3.29.41,4.07.47,4.61.17,1.44.55,5.14.71,6.64.34,3.43.78,7.61,1,9.8l.25,2.25-.41.42c-1.31,1.36-5.11,3.23-8.54,4.19a26.72,26.72,0,0,1-2.87.61c-3.11.47-3.65.88-3.65,2.7s.77,2.33,4.29,3.24a28.93,28.93,0,0,0,7.47.86h1.15a22.06,22.06,0,0,0,8.36-1.34,6.92,6.92,0,0,1,1.85-.48l.18,0a13.23,13.23,0,0,0,1.4.14c.23,0,.41,0,.56,0a1.63,1.63,0,0,0,.84-.18,1.19,1.19,0,0,1,.44-.17.45.45,0,0,1,.26.11.56.56,0,0,1,.23.39c0,.72,1.5,1.06,4.55,1.06h1c3.65-.07,5.64-.39,6.31-1s.62-.84.79-6.46c0-1.29.09-2.47.11-2.63s.08-.75.13-1.31c.16-2.05.59-5.81,1-8.68.69-4.95,1.21-10.37,1.51-15.85.26-4.59.31-14.27.1-19.62-.1-2.73-.21-5.16-.24-5.39s-.11-1.28-.18-2.33A174.58,174.58,0,0,0,267.81,217a50.28,50.28,0,0,1-.86-5.24c-.24-2.13-.33-12.73-.14-18.79.25-8.07.48-13.2.95-20.81.08-1.3.39-4.45.44-4.49s.79-.14,1.71-.28c2-.31,8.25-1.44,8.3-1.5s-.13-1.51-.33-3.3-.48-4.27-.61-5.49-.36-3.35-.51-4.73c-.35-3-2.86-25.81-3.42-31.18-.23-2.07-.49-4.44-.59-5.26a83.11,83.11,0,0,1-.88-11,36.67,36.67,0,0,1,.14-3.75c.07-.47.31-2,.53-3.37,1.48-9.13,2.15-18.74,1.59-23.47-.67-5.9-2.33-10-7.73-18.9a31.28,31.28,0,0,1-3-6.09c-.1-.57-.19-.81-.47-.81a2.39,2.39,0,0,0-.81.27,4.89,4.89,0,0,1-1.14.45c-.27,0-.29-.34-.5-1.22-.63-2.69-.72-3.88-.36-5.1a24.41,24.41,0,0,1,1.21-2.69,13.28,13.28,0,0,0,1.71-4.6c1.32-7.16-1.49-13-7.5-15.47a20.35,20.35,0,0,0-2.28-.75A12.56,12.56,0,0,0,249.1,19Z" transform="translate(-19.23 -18.97)"/></g></svg>