<svg xmlns="http://www.w3.org/2000/svg" viewBox="0 0 1099.74 874.49"><title>Asset 21</title><g id="Layer_2" data-name="Layer 2"><g id="Layer_4" data-name="Layer 4"><path d="M10.51,655.86a76.86,76.86,0,0,0,24.72-6.57A87.8,87.8,0,0,0,54.4,637c12-9.72,21.71-22.21,30.24-35,9.1-13.61,17.07-28,24.78-42.46q12.36-23.13,23-47.11a698.1,698.1,0,0,0,35.84-99.77,631.88,631.88,0,0,0,19.2-104.08q1.31-13.08,2-26.23.34-6.39.54-12.8c.13-4.55.67-9.56-.62-14a15.84,15.84,0,0,0-15.25-11.72c-5.66.09-10.91,3.22-14.84,7.1-3.22,3.2-5.63,7.27-8,11.09Q148,267.3,145,272.75c-16.62,30.34-26.29,64-32.63,97.82A881.8,881.8,0,0,0,99.15,483.76q-1.61,28.82-1.46,57.69c.07,14.27.65,29.11,5.59,42.66,5.31,14.56,15.63,27.43,31.41,31,18.85,4.28,36.28-5.37,50.32-17.07a204.44,204.44,0,0,0,18.4-18.13q9.27-10,18.2-20.22c12.13-13.9,23.85-28.15,35.31-42.61q9-11.31,17.74-22.76c1.48-1.92,1.77-5.87,1.06-8.09a10.88,10.88,0,0,0-3.77-5.45c-3.85-3-10.38-3.17-13.78.82a164.07,164.07,0,0,0-30.35,51.72A102.32,102.32,0,0,0,221.71,560a54.48,54.48,0,0,0,3,23.08c3,7.83,7.93,15.34,15.71,19.13a32,32,0,0,0,31.2-1.82c9.54-6,15.49-15.53,18.89-26.06A73,73,0,0,0,294,546.38c-1.67-21.06-10-40.56-17.23-60.14a11.34,11.34,0,0,0-4.83-6.28,10.5,10.5,0,0,0-15.42,11.86c2.41,10.73,6.74,21,11.49,30.89s10.08,19.19,15.6,28.51c2.7,4.55,5.45,9.08,8.18,13.62,2.59,4.29,5,8.72,7.81,12.88,3.51,5.21,7.64,10,13.09,13.33A30.73,30.73,0,0,0,331,595.3c14.17-1.38,26-9.59,36.37-18.83,4.12-3.66,4-11.16,0-14.85a10.76,10.76,0,0,0-14.85,0c-.94.85-1.89,1.68-2.86,2.49l-1.49,1.22-.51.41c-.87.69-.67.54.59-.44a14.15,14.15,0,0,0-2.64,1.93c-1.24.87-2.51,1.71-3.81,2.5-.92.56-1.85,1.1-2.8,1.6a30.08,30.08,0,0,0-3.42,1.67c1.78-1.3,1.5-.62.49-.24-.48.19-1,.36-1.45.52-1.35.44-2.7.74-4.08,1.06-2.06.48,2.18-.19.75-.07-.48,0-1,.09-1.45.12-1.14.05-2.35-.19-3.47-.09,2.53-.22,1.71.27.5,0-.38-.08-.76-.18-1.14-.29a9,9,0,0,0-1.69-.56c1.57.7,1.85.81.84.34-.37-.18-.73-.37-1.09-.57-.54-.3-1-.65-1.55-1-1.44-.87.54.35.66.55-.54-.89-1.92-1.7-2.66-2.48-.42-.45-.83-.91-1.22-1.38l-.4-.47q-1-1.29.51.66a19.4,19.4,0,0,0-2.11-3.06c-5.13-7.93-9.81-16.22-14.64-24.34-5.31-8.93-10.5-18-15.11-27.27q-1.89-3.8-3.62-7.67l-.52-1.18c-.31-.72-1.13-3.48-.2-.43-.42-1.39-1.11-2.74-1.63-4.09a107.53,107.53,0,0,1-4.56-14.86l-20.25,5.58c5.78,15.6,12.35,31.09,15.49,47.51.2,1,.38,2.06.55,3.1.07.41.12.83.19,1.24.36,2.27-.28-2.61-.05-.33.21,2,.41,4,.48,6.06.07,1.86.06,3.73-.05,5.59-.05.87-.14,1.73-.21,2.59-.17,2.08.36-2.23.12-.81-.12.71-.23,1.42-.36,2.12a69.78,69.78,0,0,1-3.26,12.31,9.63,9.63,0,0,0-.59,1.51c.37-2,.69-1.54.28-.73-.49,1-.94,1.94-1.47,2.88s-1.1,1.85-1.71,2.74c-.23.35-.54.7-.75,1.06,1.32-2.32.63-.81.09-.19a28,28,0,0,1-2.08,2.14c-.29.27-.61.53-.9.8-1.58,1.49,2.05-1.37.24-.16-.75.49-1.48,1-2.26,1.46-.43.25-.87.49-1.31.71-.77.39-2.49.75.35-.08-.94.27-1.84.66-2.8.91-.38.1-.76.17-1.14.26-2,.48,2.2-.16.78-.07-.88.06-1.74.13-2.62.11-.36,0-2.3-.24-.35,0s-.4-.1-.81-.2c-.67-.17-1.32-.4-2-.6-2.07-.65,2.45,1.21.26.08a19.72,19.72,0,0,1-1.88-1.11c-.23-.16-.46-.35-.7-.5,2.79,1.77,1.34,1.06.62.4a17.71,17.71,0,0,1-1.37-1.37c-.25-.27-.47-.56-.72-.83-.86-.91,1.69,2.37.71.91a31.68,31.68,0,0,1-2.28-3.85c-.17-.34-.32-.7-.49-1-.58-1.17,1,2.73.44,1-.26-.74-.53-1.48-.77-2.23a43.94,43.94,0,0,1-1.15-4.69c-.18-1-.35-3.94-.07-.13-.05-.65-.15-1.31-.2-2-.15-1.83-.2-3.66-.17-5.49q0-2.25.27-4.47c0-.41.1-.82.13-1.23.12-1.35-.46,3-.14,1.1.13-.79.26-1.58.42-2.37a120.56,120.56,0,0,1,3.25-12.42q1.09-3.45,2.35-6.83c.46-1.23.94-2.46,1.44-3.67.16-.41.34-.81.5-1.21-1.1,2.78-.31.74,0,.09a143.47,143.47,0,0,1,6.47-12.88,147.65,147.65,0,0,1,7.9-12.5c.69-1,1.4-2,2.11-2.94l.79-1.06.8-1.06c-.91,1.17-1.12,1.44-.63.82,1.57-2,3.17-4,4.82-5.89l-16.5-12.73-1.12,1.47-.31.4c1-1.36-.44.57-.54.69l-.9,1.16-4.08,5.24q-4.19,5.37-8.42,10.7-8.21,10.33-16.61,20.52-16.95,20.51-35,40.08a233.31,233.31,0,0,1-17.39,17.49c-1.5,1.31-3.11,2.49-4.6,3.8.16-.14,2-1.49.56-.43l-1.06.78c-.89.64-1.78,1.27-2.69,1.88q-2.4,1.62-4.94,3c-1.58.89-3.63,1.48-5.07,2.54,1.78-1.31,1.53-.62.51-.23-.47.19-.95.37-1.43.54-.77.26-1.54.51-2.32.74s-1.73.47-2.61.66l-1.17.24c-2.36.43,1.55-.13.44,0a37.94,37.94,0,0,1-5,.19c-.52,0-3.55-.35-1.56-.09s-.05,0-.38-.12c-.5-.1-1-.22-1.48-.35a27.06,27.06,0,0,1-2.65-.82c-.36-.12-.71-.28-1.06-.4,2.84,1,1.8.79,1.13.46a35.23,35.23,0,0,1-4-2.25c-.86-.57-2.46-2.19,0,.1-.46-.42-1-.8-1.44-1.22a42,42,0,0,1-3.25-3.42c-1.07-1.25,1.65,2.26.2.24-.42-.59-.83-1.18-1.21-1.79a44.09,44.09,0,0,1-2.27-4c-.29-.59-.56-1.2-.85-1.79-.69-1.46.47,1.13.47,1.13a9.71,9.71,0,0,1-.47-1.16c-.58-1.51-1.1-3-1.57-4.58a82,82,0,0,1-2.17-9.14c-.12-.7-.24-1.39-.35-2.09s-.44-4.2-.07-.36c-.16-1.59-.37-3.17-.51-4.75-.65-7.3-.62-14.64-.62-22q0-14,.41-28.08.82-27.88,3.28-55.69,1.23-13.8,2.85-27.56.81-6.87,1.73-13.74c.25-1.93,0,.21-.07.5.07-.63.17-1.27.26-1.9l.48-3.43q.45-3.19.93-6.39c4.8-32.27,11.53-64.56,23.88-94.87a14.43,14.43,0,0,0,1-2.48c-.42,2.26-.53,1.25-.14.35L154,302q1.22-2.76,2.49-5.5,2.55-5.46,5.39-10.79c1.89-3.55,3.88-7.06,6-10.5q1.58-2.59,3.22-5.13c.48-.76,1-1.51,1.48-2.25.29-.45.62-.89.9-1.35.53-.84-1.76,2.08-.26.37.58-.66,1.22-1.24,1.84-1.85s.91-.09-.77.55a6.6,6.6,0,0,0,.93-.63c.31-.19.64-.35,1-.54,1.67-1-2.06.8-.83.38.46-.15,1.66-.31-.21-.05-1.08.11-1.24.15-.47.13-1.94-.35-2.5-.42-1.67-.19s-1.78-.89-2.11-1.15l-.67-.53c.73.74.53.45-.6-.86-.1-.21-.68-2.52-.41-1,.31,1.74,0-1.07-.06-1.1.31.25.09,2.31.09,2.63,0,1.14,0,2.28-.07,3.41q-.3,12.65-1.17,25.26-.85,12.42-2.24,24.81c-.47,4.13-1,8.25-1.52,12.36.41-3.25,0,.24-.14,1-.14,1-.29,2.06-.44,3.09q-.45,3.07-.92,6.15-3.87,24.79-9.74,49.22a668.89,668.89,0,0,1-30.71,95.3q-1.18,2.89-2.38,5.78c-.36.85-.67,1.74-1.07,2.56,1.35-2.78-.28.64-.57,1.33q-2.53,5.91-5.17,11.77-5.13,11.4-10.65,22.62-11.11,22.58-23.75,44.36c-3.73,6.42-7.53,12.8-11.63,19q-2.94,4.46-6.11,8.77l-1.6,2.15c-.43.57-1.47,1.78.38-.48-.25.31-.49.63-.73.94q-1.74,2.21-3.55,4.36a121.38,121.38,0,0,1-14.73,14.83c-.66.55-1.33,1.08-2,1.62s-1.57,1.09.78-.6c-.31.22-.61.45-.91.68-1.51,1.11-3,2.18-4.63,3.19a71.16,71.16,0,0,1-8.78,4.81l-1,.45c-1.58.71,1-.4,1-.41-.16.34-2,.78-2.33.9-1.48.53-3,1-4.5,1.44s-3.26.83-4.91,1.14c-.74.14-1.5.2-2.23.38,3.41-.82.39-.07-.62,0a11.34,11.34,0,0,0-7.43,3.07A10.68,10.68,0,0,0,0,645.36c.23,5.24,4.64,11,10.5,10.5Z"/><path d="M401.07,246.8q63.58,56.11,125.67,113.91,62.37,58.05,123.2,117.72t120.22,121q59.8,61.77,118,125.09,58.47,63.59,115.28,128.66,7,8,14,16c6.2,7.13,19.2,6.82,25.46,0,7-7.6,6.61-17.85,0-25.46q-56.65-65.26-114.94-129.09-58-63.53-117.66-125.53-59.18-61.51-119.91-121.49T567.47,349.51q-61.92-58-125.37-114.38l-15.57-13.79c-7.06-6.22-18.61-7.47-25.46,0-6.26,6.82-7.54,18.8,0,25.46Z"/><path d="M401.83,832.38q66-75.42,132.48-150.51t133.12-149.7q66.95-74.89,134.26-149.45,67-74.21,134.38-148.08t135-147.26l16.8-18.21c7.22-7.83,11.86-17.82,11.86-28.64,0-9.93-4.41-21.8-11.86-28.64C1080.16,4.81,1070-.45,1059.24,0,1048.75.5,1037.93,4,1030.6,11.89Q962.88,85.3,895.51,159.05T761.05,307Q693.7,381.54,626.71,456.38,559.93,531,493.52,606T361,756.39q-8.2,9.35-16.4,18.71c-7.13,8.15-11.86,17.54-11.86,28.64,0,9.93,4.41,21.8,11.86,28.64,7.72,7.08,17.85,12.34,28.64,11.86,10.32-.46,21.59-3.81,28.64-11.86Z"/></g></g></svg>